<?xml version="1.0" encoding="UTF-8" standalone="no"?><!DOCTYPE svg PUBLIC "-//W3C//DTD SVG 1.1//EN" "http://www.w3.org/Graphics/SVG/1.1/DTD/svg11.dtd"><svg width="100%" height="100%" viewBox="0 0 58 56" version="1.1" xmlns="http://www.w3.org/2000/svg" xmlns:xlink="http://www.w3.org/1999/xlink" xml:space="preserve" xmlns:serif="http://www.serif.com/" style="fill-rule:evenodd;clip-rule:evenodd;stroke-linejoin:round;stroke-miterlimit:2;"><path d="M6.995,19.886c8.368,-3.674 13.032,-1.63 25.121,-1.821c12.34,-0.195 10.991,-12.273 4.839,-13.382c-6.478,-1.169 -5.623,6.415 -6.072,6.895c-3.657,3.912 -6.868,-7.676 1.841,-10.896c14.323,-5.295 20.963,21.976 -1.142,21.929c-19.948,-0.042 -22.995,-2.192 -29.043,8.336c-0.83,1.446 -2.386,1.023 -2.512,-0.468c-0.51,-6.022 6.101,-10.064 6.967,-10.593Zm23.095,29.339c0.006,-0.309 0.056,-2.882 1.575,-3.529c2.208,-0.941 2.323,2.662 2.487,3.055c2.306,5.517 12.399,-0.231 7.457,-5.806c-0.994,-1.121 -2.165,-2.441 -18.596,-2.18c-13.616,0.216 -13.585,6.96 -15.668,8.856c-3.532,3.217 -3.449,-13.456 14.594,-13.461c17.229,-0.005 21.203,0.432 23.986,5.118c6.788,11.428 -12.646,20.583 -15.835,7.947Zm27.652,-28.363c2.409,21.946 -40.021,2.579 -50.154,15.611c-0.18,0.231 -2.061,2.651 -2.753,2.411c-2.767,-0.957 0.786,-11.733 14.965,-12.016c15.937,-0.317 34.983,3.808 33.667,-4.938c-0.468,-3.112 -5.456,-3.596 -2.584,-5.894c0.548,-0.439 5.081,-1.547 6.86,4.826Z" style="fill:#080808;"/></svg>