<?xml version="1.0" encoding="UTF-8" standalone="no"?><!DOCTYPE svg PUBLIC "-//W3C//DTD SVG 1.1//EN" "http://www.w3.org/Graphics/SVG/1.1/DTD/svg11.dtd"><svg width="100%" height="100%" viewBox="0 0 48 61" version="1.1" xmlns="http://www.w3.org/2000/svg" xmlns:xlink="http://www.w3.org/1999/xlink" xml:space="preserve" xmlns:serif="http://www.serif.com/" style="fill-rule:evenodd;clip-rule:evenodd;stroke-linejoin:round;stroke-miterlimit:2;"><path d="M18.421,24.602c-14.29,14.928 -11.913,21.919 -14.432,18.444c-7.26,-10.018 -6.324,-29.92 21.276,-37.244c10.708,-2.842 10.826,-2.27 21.361,-5.709c1.588,-0.518 1.062,0.848 -0.54,12.018c-1.227,8.556 -1.954,16.907 -8.72,26.113c-8.922,12.139 -23.345,10.719 -25.543,10.503c-2.907,-0.286 -4.421,11.937 -7.49,12.019c-0.721,0.019 -5.134,0.315 -4.205,-1.449c15.328,-29.109 24.593,-37.392 27.487,-39.979c0.79,-0.706 6.063,-4.411 4.534,-4.805c-0.407,-0.105 -0.684,0.293 -5.159,3.205c-3.982,2.592 -7.927,6.283 -8.569,6.884Z" style="fill:#040404;"/></svg>