<?xml version="1.0" encoding="UTF-8" standalone="no"?><!DOCTYPE svg PUBLIC "-//W3C//DTD SVG 1.1//EN" "http://www.w3.org/Graphics/SVG/1.1/DTD/svg11.dtd"><svg width="100%" height="100%" viewBox="0 0 65 65" version="1.1" xmlns="http://www.w3.org/2000/svg" xmlns:xlink="http://www.w3.org/1999/xlink" xml:space="preserve" xmlns:serif="http://www.serif.com/" style="fill-rule:evenodd;clip-rule:evenodd;stroke-linejoin:round;stroke-miterlimit:2;"><path d="M32.555,0c0.927,6.746 3.494,21.551 3.819,23.421c0.35,2.016 2.041,0.052 5.136,-1.992c8.088,-5.343 13.672,-10.308 9.969,-5.601c-0.828,1.052 -9.996,12.705 -9.382,13.858c0.336,0.63 15.574,3.208 16.937,3.439c4.329,0.732 5.55,0.35 4.759,1.414c-0.118,0.158 -15.734,2.835 -17.104,3.07c-2.872,0.492 -5.347,0.694 -4.683,1.791c5.484,9.066 14.633,18.506 6.196,12.043c-0.47,-0.36 -9.76,-6.552 -10.61,-7.119c-1.977,-1.318 -1.271,0.927 -4.101,14.442c-1.128,5.385 -0.856,6.222 -1.667,5.727c-0.242,-0.148 -3.786,-20.212 -4.306,-20.35c-1.528,-0.405 -17.846,12.883 -14.982,8.726c4.258,-6.183 4.457,-6.003 8.682,-12.224c0.92,-1.355 1.979,-1.997 0.35,-2.319c-20.448,-4.041 -22.557,-3.391 -21.263,-4.555c0.504,-0.454 0.677,0.078 8.36,-1.438c0.94,-0.186 8.282,-1.634 11.793,-2.126c3.331,-0.467 0.875,-2.151 -5.026,-10.976c-0.724,-1.083 -4.537,-5.436 -2.458,-4.644c0.116,0.044 13.589,10.002 14.428,9.733c0.468,-0.15 0.298,-0.317 3.484,-18.053c1.007,-5.607 0.577,-6.099 1.672,-6.266Z" style="fill:#070707;"/></svg>