<?xml version="1.0" encoding="UTF-8" standalone="no"?><!DOCTYPE svg PUBLIC "-//W3C//DTD SVG 1.1//EN" "http://www.w3.org/Graphics/SVG/1.1/DTD/svg11.dtd"><svg width="100%" height="100%" viewBox="0 0 39 63" version="1.1" xmlns="http://www.w3.org/2000/svg" xmlns:xlink="http://www.w3.org/1999/xlink" xml:space="preserve" xmlns:serif="http://www.serif.com/" style="fill-rule:evenodd;clip-rule:evenodd;stroke-linejoin:round;stroke-miterlimit:2;"><path d="M36.586,50.496c-11.617,24.504 -48.141,8.511 -32.942,-20.773c5.649,-10.884 12.891,-22.924 14.414,-27.355c0.543,-1.579 -0.012,-3.001 1.402,-2.072c0.085,0.056 1.2,4.817 7.87,16.117c13.294,22.52 11.451,27.763 9.256,34.084Zm-19.186,0.079c-3.904,-2.557 -8.913,-6.445 -5.883,-17.715c1.134,-4.217 -3.347,2.007 -3.544,2.281c-8.642,12.006 5.331,25.88 12.06,19.615c2.506,-2.334 0.583,-2.915 -2.633,-4.182Z" style="fill:#050404;"/></svg>